<svg xmlns="http://www.w3.org/2000/svg" viewBox="0 0 128 128" width="128" height="128" role="img" aria-label="Azure Blob Assets">
  <title>Azure Blob Assets</title>
  <defs>
    <linearGradient id="bg" x1="0%" y1="0%" x2="92%" y2="100%">
      <stop offset="0%" stop-color="#5FD080"/>
      <stop offset="100%" stop-color="#2FA85A"/>
    </linearGradient>
    <linearGradient id="azstore" x1="9" y1="15.83" x2="9" y2="5.79" gradientUnits="userSpaceOnUse">
      <stop offset="0" stop-color="#ccc"/><stop offset=".46" stop-color="#dedede"/><stop offset=".83" stop-color="#e6e6e6"/>
    </linearGradient>
    <filter id="lift" x="-30%" y="-30%" width="160%" height="160%">
      <feDropShadow dx="0" dy="3" stdDeviation="3.5" flood-color="#0B4F2A" flood-opacity="0.30"/>
    </filter>
  </defs>

  <rect width="128" height="128" rx="28" fill="url(#bg)"/>

  <!-- Official Azure Storage mark, scaled & centered -->
  <g transform="translate(64,64) scale(5.4) translate(-9,-9)" filter="url(#lift)">
    <path d="M.5 5.79h17v9.48a.57.57 0 01-.57.57H1.07a.57.57 0 01-.57-.57V5.79z" fill="url(#azstore)"/>
    <path d="M1.07 2.17h15.86a.57.57 0 01.57.57v3.05H.5V2.73a.57.57 0 01.57-.56z" fill="#37c2b1"/>
    <path d="M2.81 6.89h12.37a.27.27 0 01.26.27v1.4a.27.27 0 01-.26.27H2.81a.27.27 0 01-.26-.27v-1.4a.27.27 0 01.26-.27z" fill="#42e8ca"/>
    <path d="M2.82 9.68h12.37a.27.27 0 01.26.27v1.41a.27.27 0 01-.26.27H2.82a.27.27 0 01-.26-.27V10a.27.27 0 01.26-.32z" fill="#37c2b1"/>
    <path d="M2.82 12.5h12.37a.27.27 0 01.26.27v1.41a.27.27 0 01-.26.27H2.82a.27.27 0 01-.26-.27v-1.41a.27.27 0 01.26-.27z" fill="#258277"/>
  </g>
</svg>
